<svg xmlns="http://www.w3.org/2000/svg" viewBox="0 0 163.25 64"><defs><style>.cls-1,.cls-4{fill:#4a5568;}.cls-2{fill:#bac7d3;}.cls-3{fill:#fff;}.cls-4{font-size:22.05px;font-family:Lato-Semibold, Lato;font-weight:700;}</style></defs><title>Asset 4</title><g id="Layer_2" data-name="Layer 2"><g id="Layer_1-2" data-name="Layer 1"><path class="cls-1" d="M0,37.41,61.48,16.54v6L9.67,39.68v.17L61.48,57v6L0,42.12Z"/><path class="cls-1" d="M163.25,43.13,101.77,64V58l51.81-17.12v-.17L101.77,23.57v-6l61.48,20.87Z"/><path class="cls-1" d="M104.32,45.35a.86.86,0,0,1,.63.27l1.7,1.85a9.37,9.37,0,0,1-3.48,2.68,12,12,0,0,1-5,.93,11.72,11.72,0,0,1-4.65-.88A10.2,10.2,0,0,1,90,47.74,10.66,10.66,0,0,1,87.79,44,14.12,14.12,0,0,1,87,39.21a13.26,13.26,0,0,1,.83-4.8,11,11,0,0,1,2.36-3.75,10.73,10.73,0,0,1,3.62-2.45,12.14,12.14,0,0,1,4.67-.87,11.62,11.62,0,0,1,4.51.83,10.81,10.81,0,0,1,3.35,2.19l-1.45,2a1.15,1.15,0,0,1-.33.33.9.9,0,0,1-.55.15,1.08,1.08,0,0,1-.5-.14,5.25,5.25,0,0,1-.56-.34l-.71-.44a5.75,5.75,0,0,0-.93-.44,8.32,8.32,0,0,0-1.23-.34A8.71,8.71,0,0,0,98.47,31a7.14,7.14,0,0,0-2.85.55,6.17,6.17,0,0,0-2.23,1.61,7.55,7.55,0,0,0-1.45,2.57,10.81,10.81,0,0,0-.51,3.46A10.09,10.09,0,0,0,92,42.69a7.61,7.61,0,0,0,1.51,2.58,6.42,6.42,0,0,0,2.23,1.59,6.93,6.93,0,0,0,2.77.56,11.15,11.15,0,0,0,1.6-.1,6.44,6.44,0,0,0,1.31-.3,5.76,5.76,0,0,0,1.15-.54,7.54,7.54,0,0,0,1.07-.81,1.46,1.46,0,0,1,.33-.24A1,1,0,0,1,104.32,45.35Z"/><path class="cls-1" d="M100.13,34.26a5,5,0,0,1,1.85.33,4.24,4.24,0,0,1,1.43.94,4.11,4.11,0,0,1,.91,1.48,6.13,6.13,0,0,1,0,3.91,4.24,4.24,0,0,1-.91,1.49,4.09,4.09,0,0,1-1.43.94,5,5,0,0,1-1.85.33,5.06,5.06,0,0,1-1.87-.33,4,4,0,0,1-1.43-.94,4.41,4.41,0,0,1-.92-1.49,6.13,6.13,0,0,1,0-3.91,4.27,4.27,0,0,1,.92-1.48,4.14,4.14,0,0,1,1.43-.94A5.06,5.06,0,0,1,100.13,34.26Zm0,7.73a2,2,0,0,0,1.69-.77,3.87,3.87,0,0,0,.55-2.24,4,4,0,0,0-.55-2.26,2.26,2.26,0,0,0-3.41,0A3.85,3.85,0,0,0,97.85,39a3.8,3.8,0,0,0,.56,2.24A2,2,0,0,0,100.13,42Z"/><path class="cls-1" d="M113.9,30.68V43.92h-1.35a.51.51,0,0,1-.55-.4l-.19-.88a4.6,4.6,0,0,1-1.27,1,3.43,3.43,0,0,1-1.67.39,3,3,0,0,1-1.37-.31,3.1,3.1,0,0,1-1.08-.9,4.35,4.35,0,0,1-.69-1.47,7.13,7.13,0,0,1-.25-2,6,6,0,0,1,.28-1.89,4.67,4.67,0,0,1,.79-1.52,3.73,3.73,0,0,1,1.24-1,3.57,3.57,0,0,1,1.62-.36,3.28,3.28,0,0,1,1.32.24,3.51,3.51,0,0,1,1,.65V30.68Zm-2.2,6.43a2.22,2.22,0,0,0-.82-.64,2.48,2.48,0,0,0-.95-.19,2.2,2.2,0,0,0-.9.19,1.79,1.79,0,0,0-.69.57,2.66,2.66,0,0,0-.43,1,5.6,5.6,0,0,0-.15,1.38,5.82,5.82,0,0,0,.13,1.35,2.31,2.31,0,0,0,.37.91,1.34,1.34,0,0,0,.58.51,1.81,1.81,0,0,0,.78.16,2.25,2.25,0,0,0,1.17-.29,3.56,3.56,0,0,0,.91-.81Z"/><path class="cls-1" d="M117.77,39.25a4.53,4.53,0,0,0,.25,1.22,2.49,2.49,0,0,0,.52.85,2.06,2.06,0,0,0,.76.5,2.76,2.76,0,0,0,1,.16,3.16,3.16,0,0,0,.92-.12,5.61,5.61,0,0,0,.68-.28l.51-.28a.84.84,0,0,1,.42-.12.47.47,0,0,1,.41.2l.63.81a3.47,3.47,0,0,1-.82.71,4.42,4.42,0,0,1-1,.47,5.82,5.82,0,0,1-1,.24,7,7,0,0,1-1,.07,4.84,4.84,0,0,1-1.77-.31,4,4,0,0,1-1.43-.94,4.39,4.39,0,0,1-1-1.53,6,6,0,0,1-.34-2.12,5.12,5.12,0,0,1,.3-1.76,4.07,4.07,0,0,1,.87-1.43,4.15,4.15,0,0,1,1.38-1,4.54,4.54,0,0,1,1.84-.36,4.59,4.59,0,0,1,1.6.28,3.34,3.34,0,0,1,1.26.81,3.66,3.66,0,0,1,.82,1.3,4.81,4.81,0,0,1,.3,1.76,1.32,1.32,0,0,1-.11.67c-.07.12-.2.17-.41.17Zm4.2-1.32a2.64,2.64,0,0,0-.12-.81,1.92,1.92,0,0,0-.36-.66,1.65,1.65,0,0,0-.61-.45,2.09,2.09,0,0,0-.86-.17,2,2,0,0,0-1.5.55,2.61,2.61,0,0,0-.7,1.54Z"/><path class="cls-2" d="M28.63,11.08C31.74,11.44,40,14,40,14l1,.3-.35-1a97.26,97.26,0,0,1-3.5-11.32L70.29,33.29l-8.53,9Z"/><path class="cls-1" d="M38,3.55,69.58,33.31l-7.84,8.3L30.18,11.85c3,.63,7.69,2,9.71,2.64l1.92.6-.69-1.89C39.91,9.82,38.66,6,38,3.55M36.66.91c-.75.79,3.52,12.63,3.52,12.63s-9.65-3-12.17-3a.81.81,0,0,0-.56.13L61.78,43,71,33.27,36.66.91Z"/><path class="cls-2" d="M55.37,32.39,88.51,1.15A98.32,98.32,0,0,1,85,12.46l-.34.95,1-.3c.09,0,8.3-2.57,11.41-2.94L63.89,41.41Z"/><path class="cls-1" d="M87.65,2.65c-.65,2.43-1.9,6.26-3.12,9.64l-.68,1.89,1.92-.59c2-.63,6.72-2,9.71-2.64L63.92,40.7l-7.84-8.29L87.65,2.65M89,0,54.67,32.37l9.2,9.75L98.21,9.75a.89.89,0,0,0-.56-.12c-2.52,0-12.18,3-12.18,3S89.75.79,89,0Z"/><polygon class="cls-3" points="63.13 53.28 60.86 57.47 59.95 52.79 56.88 56.44 56.93 51.68 53.18 54.63 54.19 49.98 49.93 52.12 51.85 47.76 47.25 49 50.01 45.12 45.25 45.41 48.74 42.16 44.02 41.49 48.09 39.01 43.6 37.4 48.09 35.8 44.02 33.32 48.74 32.65 45.25 29.4 50.01 29.69 47.25 25.81 51.85 27.05 49.93 22.69 54.19 24.84 53.18 20.18 56.93 23.13 56.88 18.37 59.95 22.02 60.86 17.34 63.13 21.53 64.97 17.13 66.36 21.69 69.04 17.75 69.48 22.5 72.9 19.18 72.37 23.91 76.39 21.35 74.92 25.88 79.38 24.18 77.02 28.32 81.73 27.55 78.58 31.14 83.35 31.33 79.55 34.2 84.18 35.35 79.87 37.4 84.18 39.46 79.55 40.6 83.35 43.48 78.58 43.67 81.73 47.26 77.02 46.48 79.38 50.63 74.92 48.93 76.39 53.46 72.37 50.9 72.9 55.63 69.48 52.31 69.04 57.06 66.36 53.12 64.97 57.68 63.13 53.28"/><path class="cls-1" d="M64.9,18.61l.67,2.23.61,2,1.18-1.73,1.31-1.93.21,2.32.19,2.08,1.5-1.45,1.68-1.62L72,22.82l-.23,2.08,1.76-1.13,2-1.25-.72,2.21-.65,2L76.07,26l2.18-.83-1.15,2-1,1.82,2.06-.34,2.3-.38L78.9,30l-1.39,1.57,2.1.09,2.33.09-1.86,1.4-1.67,1.27,2,.5,2.26.56-2.1,1-1.89.9,1.89.91,2.1,1-2.26.56-2,.5,1.67,1.27L81.94,43l-2.33.09-2.1.09,1.39,1.57,1.53,1.75-2.3-.38-2.06-.34,1,1.82,1.15,2-2.18-.83-1.95-.74.65,2,.72,2.21-2-1.26-1.76-1.12L72,52l.26,2.31-1.68-1.62-1.5-1.45-.19,2.08-.21,2.32L67.36,53.7,66.18,52l-.61,2L64.9,56.2,64,54.05l-.81-1.93L62.2,54l-1.11,2-.45-2.29-.4-2-1.35,1.6-1.5,1.78,0-2.32,0-2.09L55.8,51.93,54,53.38l.5-2.28.44-2L53,50,51,51l.94-2.12L52.74,47l-2,.55-2.25.6,1.35-1.89L51,44.56l-2.09.12-2.33.14,1.7-1.58,1.54-1.42-2.07-.3-2.31-.33,2-1.21,1.79-1.08-2-.71-2.19-.79,2.19-.78,2-.71-1.79-1.09-2-1.2,2.31-.33,2.07-.3-1.54-1.42L46.61,30l2.33.15,2.09.12-1.22-1.7-1.35-1.9,2.25.61,2,.55-.85-1.92L51,23.76l2.08,1,1.87.94-.44-2L54,21.43l1.84,1.45,1.64,1.29,0-2.09,0-2.33,1.5,1.79,1.35,1.6.4-2.05.45-2.29,1.11,2.05,1,1.83L64,20.76l.9-2.15m.15-3-2,4.72-2.44-4.49-1,5L56.36,17l.06,5.11-4-3.17,1.08,5-4.58-2.3L51,26.3,46,25l3,4.17-5.11-.31,3.74,3.48L42.56,33l4.38,2.66L42.12,37.4l4.82,1.73-4.38,2.66,5.07.72L43.89,46,49,45.68l-3,4.17L51,48.51,48.9,53.19l4.58-2.3-1.08,5,4-3.17-.06,5.11,3.3-3.92,1,5,2.44-4.49,2,4.72,1.48-4.9,2.88,4.23.47-5.09L73.55,57,73,51.88l4.32,2.75-1.58-4.86,4.78,1.82L78,47.15,83,48l-3.38-3.84,5.12-.21-4.09-3.08,5-1.23L81,37.4l4.63-2.2-5-1.23,4.09-3.09-5.12-.2L83,26.84,78,27.66l2.53-4.44L75.72,25l1.58-4.86L73,22.93l.57-5.08-3.67,3.56-.47-5.09-2.88,4.23-1.48-4.9Z"/><path class="cls-2" d="M63.68,51.26A13.64,13.64,0,1,1,77.35,37.62,13.67,13.67,0,0,1,63.68,51.26Z"/><path class="cls-1" d="M63.68,24.49A13.14,13.14,0,1,1,50.51,37.62,13.17,13.17,0,0,1,63.68,24.49m0-1A14.14,14.14,0,1,0,77.85,37.62,14.15,14.15,0,0,0,63.68,23.49Z"/><text class="cls-4" transform="translate(56.73 43.93)">1</text></g></g></svg>