<svg xmlns="http://www.w3.org/2000/svg" xmlns:xlink="http://www.w3.org/1999/xlink" viewBox="0 0 42 84"><defs><style>.cls-1{fill:#4a5568;}.cls-2{fill:#fff;}.cls-3{fill:url(#linear-gradient);}</style><linearGradient id="linear-gradient" x1="21" y1="84" x2="21" y2="42" gradientUnits="userSpaceOnUse"><stop offset="0" stop-color="#3a7dce"/><stop offset="0.28" stop-color="#3a5ece"/><stop offset="0.55" stop-color="#3a7dce"/><stop offset="0.88" stop-color="#3a7dce"/><stop offset="1" stop-color="#3a7dce"/></linearGradient></defs><title>icon-linkedin</title><g id="Layer_2" data-name="Layer 2"><g id="Layer_1-2" data-name="Layer 1"><rect class="cls-1" width="42" height="42" rx="5" ry="5"/><path class="cls-2" d="M10.08,7.16a3.2,3.2,0,0,1,2.53,1.2A3,3,0,0,1,13.3,10a3.18,3.18,0,0,1-1.53,3.12,2.51,2.51,0,0,1-1,.38,3.29,3.29,0,0,1-3.12-1,3.22,3.22,0,0,1-.83-1.9,3,3,0,0,1,.94-2.5A3.12,3.12,0,0,1,10.08,7.16ZM7.54,15.23h5.07V34.84H7.54Z"/><path class="cls-2" d="M17.22,15.23h5.07v2a12.19,12.19,0,0,1,3.13-2,7.69,7.69,0,0,1,2.86-.55,7.09,7.09,0,0,1,5.11,2,6.9,6.9,0,0,1,1.76,5.12v13h-5V26.25a21.58,21.58,0,0,0-.32-4.66,3,3,0,0,0-3.13-2.36,3.84,3.84,0,0,0-2.64,1A5.39,5.39,0,0,0,22.51,23a22.45,22.45,0,0,0-.22,4v7.86H17.22Z"/><rect class="cls-3" y="42" width="42" height="42" rx="5" ry="5"/><path class="cls-2" d="M10.08,49.16a3.2,3.2,0,0,1,2.53,1.2A3,3,0,0,1,13.3,52a3.18,3.18,0,0,1-1.53,3.12,2.51,2.51,0,0,1-1,.38,3.29,3.29,0,0,1-3.12-1,3.22,3.22,0,0,1-.83-1.9,3,3,0,0,1,.94-2.5A3.12,3.12,0,0,1,10.08,49.16ZM7.54,57.23h5.07V76.84H7.54Z"/><path class="cls-2" d="M17.22,57.23h5.07v2a12.19,12.19,0,0,1,3.13-2,7.69,7.69,0,0,1,2.86-.55,7.09,7.09,0,0,1,5.11,2,6.9,6.9,0,0,1,1.76,5.12v13h-5V68.25a21.58,21.58,0,0,0-.32-4.66,3,3,0,0,0-3.13-2.36,3.84,3.84,0,0,0-2.64,1A5.39,5.39,0,0,0,22.51,65a22.45,22.45,0,0,0-.22,4v7.86H17.22Z"/></g></g></svg>