<svg xmlns="http://www.w3.org/2000/svg" viewBox="0 0 24 24">
    <defs>
        <style>.a{fill:#4a5568;}.b{fill:#fffdfe;}.c{fill:#fcfcfc;}</style>
    </defs>
    <title>tag</title>
    <path class="a"
          d="M11.91,1h0a1,1,0,0,0-.62-.27L1.92,0A1,1,0,0,0,.82,1.2l1.69,9a1,1,0,0,0,.34.59h0L15,21.47a1,1,0,0,0,1.44-.07l7.13-7.77a1.8,1.8,0,0,0-.14-2.58Z"/>
    <path class="b"
          d="M11.2,2.09h0a1,1,0,0,0-.63-.27L1.2,1.13A1,1,0,0,0,.1,2.33l1.7,9a1,1,0,0,0,.34.59h0L14.24,22.6a1,1,0,0,0,1.43-.07l7.14-7.77a1.81,1.81,0,0,0-.14-2.58Z"/>
    <path class="a"
          d="M11.11,3.23h0A1,1,0,0,0,10.48,3L1.11,2.28A1,1,0,0,0,0,3.47l1.69,9a1,1,0,0,0,.34.58h0l12.1,10.64a1,1,0,0,0,1.43-.07l7.14-7.77a1.8,1.8,0,0,0-.14-2.58Z"/>
    <ellipse class="c" cx="5.51" cy="6.91" rx="2.37" ry="2.32"/>
</svg>
