<svg xmlns="http://www.w3.org/2000/svg" viewBox="0 0 64 75.05" width="18px" height="18px">
    <defs>
        <style>.cls-1{fill:#4a5568;}.cls-2{fill:#fff;}</style>
    </defs>
    <title>fc-calender</title>
    <g id="Layer_2" data-name="Layer 2">
        <g id="fc-cal">
            <g id="cgr">
                <rect class="cls-1" y="11.05" width="64" height="64" rx="5.84" ry="5.84"/>
                <path class="cls-2"
                      d="M5.21,22.13v45A3.38,3.38,0,0,0,8.59,70.5H55.41a3.38,3.38,0,0,0,3.38-3.38v-45ZM17.68,64H8.38V56.8h9.3Zm0-9.38H8.38V47.43h9.3Zm0-9.37H8.38V38.05h9.3Zm0-9.38H8.38V28.68h9.3ZM30.33,64H21V56.8h9.31Zm0-9.38H21V47.43h9.31Zm0-9.37H21V38.05h9.31Zm0-9.38H21V28.68h9.31ZM43,64H33.67V56.8H43Zm0-9.38H33.67V47.43H43Zm0-9.37H33.67V38.05H43Zm0-9.38H33.67V28.68H43ZM55.62,64h-9.3V56.8h9.3Zm0-9.38h-9.3V47.43h9.3Zm0-9.37h-9.3V38.05h9.3Zm0-9.38h-9.3V28.68h9.3Z"/>
                <rect class="cls-2" x="12.04" y="1.12" width="7.65" height="16.87" rx="3.82" ry="3.82"/>
                <path class="cls-1"
                      d="M15.86,19.12a5,5,0,0,1-4.95-5V5a4.95,4.95,0,0,1,9.9,0v9.22A5,5,0,0,1,15.86,19.12Zm0-16.87A2.7,2.7,0,0,0,13.16,5v9.22a2.7,2.7,0,0,0,5.4,0V5A2.7,2.7,0,0,0,15.86,2.25Z"/>
                <rect class="cls-2" x="44.43" y="1.12" width="7.65" height="16.87" rx="3.82" ry="3.82"/>
                <path class="cls-1"
                      d="M48.25,19.12a5,5,0,0,1-5-5V5a5,5,0,0,1,9.9,0v9.22A5,5,0,0,1,48.25,19.12Zm0-16.87A2.7,2.7,0,0,0,45.55,5v9.22a2.7,2.7,0,0,0,5.4,0V5A2.7,2.7,0,0,0,48.25,2.25Z"/>
            </g>
        </g>
    </g>
</svg>
