<svg xmlns="http://www.w3.org/2000/svg" viewBox="0 0 42 84"><defs><style>.cls-1{fill:#4a5568;}.cls-2{fill:#fff;}.cls-3{fill:#7289da;}</style></defs><title>icon-discord</title><g id="Layer_2" data-name="Layer 2"><g id="Layer_1-2" data-name="Layer 1"><rect class="cls-1" width="42" height="42" rx="5" ry="5"/><path class="cls-2" d="M6.48,15.09V26.74H4.84a2.75,2.75,0,0,1-1.15-.65,2.64,2.64,0,0,1-.65-1v-8a3.47,3.47,0,0,1,.65-1.15,3.77,3.77,0,0,1,1-.82Z"/><path class="cls-2" d="M35.52,26.58V14.93h1.64a2.8,2.8,0,0,1,1.15.66,2.54,2.54,0,0,1,.65,1v8a3.47,3.47,0,0,1-.65,1.15,3.77,3.77,0,0,1-1,.82Z"/><path class="cls-2" d="M31.67,11H10.17a2.32,2.32,0,0,0-2.32,2.32V28.69A2.32,2.32,0,0,0,10.17,31h21.5A2.31,2.31,0,0,0,34,28.69V13.31A2.31,2.31,0,0,0,31.67,11Zm-5.33,4.59a2.23,2.23,0,1,1-2.23,2.22A2.21,2.21,0,0,1,26.34,15.58Zm-10.7,0a2.23,2.23,0,1,1-2.23,2.22A2.22,2.22,0,0,1,15.64,15.58ZM28.28,27H13.55a1.39,1.39,0,0,1,0-2.78H28.28a1.39,1.39,0,0,1,0,2.78Z"/><rect class="cls-3" y="42" width="42" height="42" rx="5" ry="5"/><path class="cls-2" d="M6.48,57.09V68.74H4.84a2.75,2.75,0,0,1-1.15-.65,2.64,2.64,0,0,1-.65-1v-8a3.47,3.47,0,0,1,.65-1.15,3.77,3.77,0,0,1,1-.82Z"/><path class="cls-2" d="M35.52,68.58V56.93h1.64a2.8,2.8,0,0,1,1.15.66,2.54,2.54,0,0,1,.65,1v8a3.47,3.47,0,0,1-.65,1.15,3.77,3.77,0,0,1-1,.82Z"/><path class="cls-2" d="M31.67,53H10.17a2.32,2.32,0,0,0-2.32,2.32V70.69A2.32,2.32,0,0,0,10.17,73h21.5A2.31,2.31,0,0,0,34,70.69V55.31A2.31,2.31,0,0,0,31.67,53Zm-5.33,4.59a2.23,2.23,0,1,1-2.23,2.22A2.21,2.21,0,0,1,26.34,57.58Zm-10.7,0a2.23,2.23,0,1,1-2.23,2.22A2.22,2.22,0,0,1,15.64,57.58ZM28.28,69H13.55a1.39,1.39,0,1,1,0-2.78H28.28a1.39,1.39,0,1,1,0,2.78Z"/></g></g></svg>